<svg width="100" height="100" viewBox="0 0 100 100" fill="none" xmlns="http://www.w3.org/2000/svg">
<rect width="100" height="100" fill="#FFBE39"/>
<path d="M77.69 53.14L81.89 56.22C78.11 59.65 73.35 63.57 69.71 66.02L66.49 63.5C69.99 60.84 74.89 56.29 77.69 53.14ZM60.33 18L66.14 19.12C64.46 22.48 62.5 26.12 60.89 28.43L56.48 27.31C57.81 24.72 59.49 20.8 60.33 18ZM50.81 39.7V45.79H74.4V39.7H50.81ZM50.81 29.55V35.64H74.4V29.55H50.81ZM45.98 25.35H79.44V50.06H45.98V25.35ZM60.12 47.75H64.88V76.87C64.88 79.53 64.39 80.86 62.64 81.63C60.82 82.4 58.02 82.47 53.61 82.47C53.47 81.14 52.84 79.18 52.21 77.85C55.36 77.92 58.16 77.92 59 77.85C59.91 77.85 60.12 77.64 60.12 76.87V47.75ZM43.32 56.15H55.01V60.56H43.32V56.15ZM53.82 56.15H54.73L55.64 56.01L58.51 57.2C55.99 68.33 50.46 75.68 43.46 79.67C42.83 78.55 41.22 76.8 40.17 76.03C46.75 72.6 51.79 66.16 53.82 56.99V56.15ZM64.25 48.1C66.21 57.97 71.25 70.01 83.5 75.33C82.52 76.31 80.98 78.27 80.28 79.6C68.31 73.44 63.27 60.77 61.38 51.67L64.25 48.1ZM28.9 18.14L33.52 19.89C30.86 25.07 27.57 31.37 24.84 35.22L21.27 33.68C23.79 29.62 27.08 22.76 28.9 18.14ZM36.74 26.12L41.15 28.15C36.32 35.92 29.53 45.86 24.28 51.95L21.06 50.13C26.31 43.9 32.89 33.47 36.74 26.12ZM17.7 32.7L20.5 29.34C24.28 32.77 28.55 37.46 30.37 40.68L27.36 44.6C25.61 41.24 21.41 36.27 17.7 32.7ZM34.01 42.15L37.79 40.54C40.73 45.16 43.6 51.18 44.58 55.03L40.45 56.92C39.54 53 36.81 46.77 34.01 42.15ZM17.14 49.08C23.23 48.8 31.98 48.38 40.8 47.89V52.3C32.47 52.86 24.07 53.35 17.7 53.77L17.14 49.08ZM35.83 59.09L39.68 57.9C41.5 61.89 42.97 67.07 43.39 70.43L39.33 71.69C38.98 68.33 37.51 63.08 35.83 59.09ZM21.34 58.11L25.75 58.88C24.84 65.53 23.23 72.25 20.99 76.73C20.15 76.17 18.05 75.26 17 74.77C19.24 70.5 20.57 64.2 21.34 58.11ZM28.76 51.11H33.38V82.47H28.76V51.11Z" fill="black"/>
</svg>
