<?xml version="1.0" encoding="UTF-8"?>
<svg xmlns="http://www.w3.org/2000/svg" xmlns:xlink="http://www.w3.org/1999/xlink" width="96px" height="96px" viewBox="0 0 96 96" version="1.1">
<g id="surface1">
<rect x="0" y="0" width="96" height="96" style="fill:rgb(100%,74.509804%,22.352941%);fill-opacity:1;stroke:none;"/>
<path style=" stroke:none;fill-rule:nonzero;fill:rgb(0%,0%,0%);fill-opacity:1;" d="M 74.582031 51.015625 L 78.613281 53.972656 C 74.984375 57.265625 70.414062 61.027344 66.921875 63.378906 L 63.832031 60.960938 C 67.191406 58.40625 71.894531 54.039062 74.582031 51.015625 Z M 57.917969 17.28125 L 63.496094 18.355469 C 61.882812 21.582031 60 25.074219 58.453125 27.292969 L 54.222656 26.21875 C 55.496094 23.730469 57.109375 19.96875 57.917969 17.28125 Z M 48.777344 38.113281 L 48.777344 43.957031 L 71.425781 43.957031 L 71.425781 38.113281 Z M 48.777344 28.367188 L 48.777344 34.214844 L 71.425781 34.214844 L 71.425781 28.367188 Z M 44.140625 24.335938 L 76.261719 24.335938 L 76.261719 48.058594 L 44.140625 48.058594 Z M 57.714844 45.839844 L 62.285156 45.839844 L 62.285156 73.796875 C 62.285156 76.347656 61.8125 77.625 60.132812 78.363281 C 58.386719 79.105469 55.699219 79.171875 51.464844 79.171875 C 51.332031 77.894531 50.726562 76.011719 50.121094 74.734375 C 53.144531 74.804688 55.832031 74.804688 56.640625 74.734375 C 57.511719 74.734375 57.714844 74.535156 57.714844 73.796875 Z M 41.585938 53.902344 L 52.808594 53.902344 L 52.808594 58.136719 L 41.585938 58.136719 Z M 51.667969 53.902344 L 52.539062 53.902344 L 53.414062 53.769531 L 56.167969 54.910156 C 53.75 65.597656 48.441406 72.652344 41.722656 76.484375 C 41.117188 75.40625 39.570312 73.726562 38.5625 72.988281 C 44.878906 69.695312 49.71875 63.511719 51.667969 54.710938 Z M 61.679688 46.175781 C 63.5625 55.652344 68.398438 67.210938 80.160156 72.316406 C 79.21875 73.257812 77.742188 75.140625 77.070312 76.414062 C 65.578125 70.503906 60.738281 58.339844 58.925781 49.601562 Z M 27.742188 17.414062 L 32.179688 19.09375 C 29.625 24.066406 26.46875 30.113281 23.847656 33.8125 L 20.417969 32.332031 C 22.839844 28.433594 25.996094 21.847656 27.742188 17.414062 Z M 35.269531 25.074219 L 39.503906 27.023438 C 34.867188 34.484375 28.347656 44.027344 23.308594 49.871094 L 20.21875 48.125 C 25.257812 42.144531 31.574219 32.132812 35.269531 25.074219 Z M 16.992188 31.390625 L 19.679688 28.167969 C 23.308594 31.460938 27.40625 35.960938 29.15625 39.054688 L 26.265625 42.816406 C 24.585938 39.589844 20.554688 34.820312 16.992188 31.390625 Z M 32.648438 40.464844 L 36.277344 38.917969 C 39.101562 43.355469 41.855469 49.132812 42.796875 52.828125 L 38.832031 54.644531 C 37.957031 50.878906 35.335938 44.898438 32.648438 40.464844 Z M 16.453125 47.117188 C 22.300781 46.847656 30.699219 46.445312 39.167969 45.972656 L 39.167969 50.207031 C 31.171875 50.746094 23.105469 51.214844 16.992188 51.621094 Z M 34.398438 56.726562 L 38.09375 55.585938 C 39.839844 59.414062 41.25 64.386719 41.65625 67.613281 L 37.757812 68.824219 C 37.421875 65.597656 36.007812 60.558594 34.398438 56.726562 Z M 20.488281 55.785156 L 24.71875 56.523438 C 23.847656 62.910156 22.300781 69.359375 20.152344 73.660156 C 19.34375 73.125 17.328125 72.25 16.320312 71.777344 C 18.46875 67.679688 19.746094 61.632812 20.488281 55.785156 Z M 27.609375 49.066406 L 32.042969 49.066406 L 32.042969 79.171875 L 27.609375 79.171875 Z M 27.609375 49.066406 "/>
</g>
</svg>
