<svg width="1920" height="1080" viewBox="0 0 1920 1080" fill="none" xmlns="http://www.w3.org/2000/svg">
<g clip-path="url(#clip0_624_1331)">
<rect width="1920" height="1080" fill="black"/>
<path d="M1124.36 752.308C1091.62 752.308 1059.85 745.979 1029.94 733.498C1001.06 721.444 975.119 704.189 952.831 682.199C930.558 660.22 913.063 634.615 900.841 606.117C888.199 576.61 881.773 545.26 881.773 512.949V109.422C881.773 77.1108 888.184 45.7608 900.841 16.2532C913.063 -12.2539 930.543 -37.8489 952.831 -59.8286C975.104 -81.8082 1001.05 -99.0729 1029.93 -111.128C1059.84 -123.608 1091.59 -129.938 1124.35 -129.938C1157.11 -129.938 1188.86 -123.608 1218.77 -111.128C1247.65 -99.0729 1273.59 -81.8181 1295.88 -59.8286C1318.16 -37.8489 1335.65 -12.244 1347.87 16.2532C1360.51 45.7608 1366.94 77.1108 1366.94 109.422V512.949C1366.94 545.26 1360.53 576.61 1347.87 606.117C1335.65 634.625 1318.17 660.22 1295.88 682.199C1273.61 704.179 1247.67 721.444 1218.77 733.498C1188.86 745.979 1157.11 752.308 1124.36 752.308ZM1124.36 -129.086C1091.73 -129.086 1060.08 -122.776 1030.28 -110.345C1001.5 -98.3301 975.658 -81.1346 953.46 -59.2243C931.262 -37.3239 913.827 -11.8082 901.665 16.59C889.068 45.9985 882.672 77.2296 882.672 109.431V512.959C882.672 545.161 889.068 576.392 901.665 605.8C913.842 634.199 931.262 659.714 953.46 681.615C975.658 703.515 1001.51 720.721 1030.28 732.726C1060.08 745.167 1091.74 751.466 1124.36 751.466C1157 751.466 1188.65 745.157 1218.44 732.726C1247.23 720.711 1273.07 703.515 1295.27 681.615C1317.47 659.714 1334.9 634.199 1347.06 605.8C1359.66 576.392 1366.06 545.161 1366.06 512.959V109.431C1366.06 77.2296 1359.66 45.9985 1347.06 16.59C1334.89 -11.8082 1317.47 -37.3239 1295.27 -59.2243C1273.07 -81.1247 1247.22 -98.3301 1218.44 -110.345C1188.65 -122.786 1156.99 -129.086 1124.36 -129.086Z" stroke="#181818" stroke-width="4" stroke-miterlimit="10"/>
<path d="M1107 1294.69C997.25 1294.69 890.77 1277.92 790.545 1244.85C693.732 1212.9 606.786 1167.17 532.12 1108.93C457.454 1050.68 398.838 982.852 357.885 907.328C315.49 829.141 294 746.075 294 660.458V-408.772C294 -494.389 315.49 -577.454 357.885 -655.641C398.838 -731.166 457.454 -798.993 532.12 -857.241C606.786 -915.488 693.732 -961.215 790.545 -993.163C890.77 -1026.24 997.236 -1043 1107 -1043C1216.76 -1043 1323.23 -1026.24 1423.46 -993.163C1520.27 -961.215 1607.21 -915.488 1681.88 -857.241C1756.55 -798.993 1815.16 -731.166 1856.11 -655.641C1898.51 -577.454 1920 -494.389 1920 -408.772V660.458C1920 746.075 1898.51 829.141 1856.11 907.328C1815.16 982.852 1756.55 1050.68 1681.88 1108.93C1607.21 1167.17 1520.27 1212.9 1423.46 1244.85C1323.23 1277.92 1216.75 1294.69 1107 1294.69ZM1107 -1040.77C997.636 -1040.77 891.527 -1024.06 791.658 -991.102C695.188 -959.266 608.542 -913.706 534.147 -855.659C459.739 -797.612 401.337 -730.03 360.527 -654.772C318.289 -576.853 296.856 -494.088 296.856 -408.772V660.458C296.856 745.774 318.275 828.55 360.527 906.459C401.337 981.716 459.739 1049.31 534.147 1107.35C608.556 1165.38 695.188 1210.95 791.658 1242.79C891.541 1275.74 997.636 1292.46 1107 1292.46C1216.36 1292.46 1322.47 1275.75 1422.34 1242.79C1518.81 1210.95 1605.46 1165.39 1679.85 1107.35C1754.26 1049.3 1812.66 981.716 1853.47 906.459C1895.71 828.539 1917.14 745.774 1917.14 660.458V-408.772C1917.14 -494.088 1895.73 -576.864 1853.47 -654.772C1812.66 -730.03 1754.26 -797.623 1679.85 -855.659C1605.44 -913.706 1518.81 -959.266 1422.34 -991.102C1322.46 -1024.05 1216.36 -1040.77 1107 -1040.77Z" stroke="#181818" stroke-width="4" stroke-miterlimit="10"/>
<path d="M1109.66 1105.2C1025.88 1105.2 944.623 1091.33 868.109 1063.98C794.213 1037.56 727.855 999.739 670.856 951.562C613.872 903.385 569.127 847.295 537.865 784.832C505.503 720.165 489.098 651.463 489.098 580.659V-303.653C489.098 -374.469 505.503 -443.159 537.865 -507.826C569.113 -570.289 613.858 -626.391 670.856 -674.556C727.84 -722.733 794.213 -760.546 868.094 -786.972C944.594 -814.321 1025.87 -828.191 1109.64 -828.191C1193.42 -828.191 1274.68 -814.321 1351.19 -786.972C1425.09 -760.557 1491.45 -722.733 1548.44 -674.556C1605.43 -626.379 1650.17 -570.289 1681.44 -507.826C1713.8 -443.159 1730.2 -374.457 1730.2 -303.653V580.659C1730.2 651.474 1713.8 720.165 1681.44 784.832C1650.19 847.295 1605.44 903.385 1548.44 951.562C1491.46 999.739 1425.09 1037.55 1351.19 1063.98C1274.69 1091.33 1193.42 1105.2 1109.64 1105.2H1109.66ZM1109.66 -826.359C1026.19 -826.359 945.201 -812.545 868.962 -785.286C795.327 -758.961 729.2 -721.272 672.404 -673.264C615.608 -625.255 571.022 -569.356 539.89 -507.118C507.644 -442.676 491.297 -374.221 491.297 -303.653V580.659C491.297 651.227 507.644 719.682 539.89 784.112C571.037 846.351 615.623 902.25 672.404 950.258C729.2 998.266 795.327 1035.96 868.962 1062.28C945.201 1089.54 1026.17 1103.35 1109.66 1103.35C1193.13 1103.35 1274.11 1089.54 1350.35 1062.28C1423.99 1035.96 1490.12 998.266 1546.91 950.258C1603.71 902.25 1648.29 846.351 1679.43 784.112C1711.67 719.67 1728.02 651.216 1728.02 580.659V-303.653C1728.02 -374.221 1711.67 -442.676 1679.43 -507.118C1648.28 -569.356 1603.69 -625.255 1546.91 -673.264C1490.12 -721.272 1423.99 -758.961 1350.35 -785.286C1274.11 -812.545 1193.14 -826.359 1109.66 -826.359Z" stroke="#181818" stroke-width="4" stroke-miterlimit="10"/>
<path d="M1117.52 921.387C1058.96 921.387 1002.13 911.282 948.649 891.364C896.992 872.12 850.582 844.57 810.739 809.488C770.896 774.395 739.606 733.536 717.757 688.046C695.138 640.937 683.665 590.905 683.665 539.323V-104.803C683.665 -156.385 695.138 -206.417 717.757 -253.526C739.606 -299.027 770.896 -339.886 810.739 -374.968C850.582 -410.061 896.977 -437.6 948.649 -456.844C1002.14 -476.762 1058.96 -486.867 1117.52 -486.867C1176.09 -486.867 1232.92 -476.762 1286.4 -456.844C1338.05 -437.6 1384.46 -410.05 1424.31 -374.968C1464.15 -339.875 1495.44 -299.016 1517.29 -253.526C1539.91 -206.417 1551.38 -156.385 1551.38 -104.803V539.323C1551.38 590.905 1539.91 640.937 1517.29 688.046C1495.44 733.547 1464.15 774.407 1424.31 809.488C1384.46 844.581 1338.07 872.12 1286.4 891.364C1232.9 911.282 1176.09 921.387 1117.52 921.387ZM1117.52 -485.541C1059.15 -485.541 1002.54 -475.469 949.242 -455.619C897.763 -436.442 851.531 -408.993 811.821 -374.024C772.111 -339.055 740.94 -298.342 719.165 -253.009C696.62 -206.068 685.192 -156.205 685.192 -104.814V539.312C685.192 590.714 696.62 640.566 719.165 687.506C740.94 732.839 772.111 773.563 811.821 808.521C851.531 843.491 897.763 870.94 949.242 890.116C1002.54 909.967 1059.17 920.038 1117.52 920.038C1175.89 920.038 1232.5 909.967 1285.8 890.116C1337.28 870.94 1383.51 843.491 1423.22 808.521C1462.93 773.552 1494.11 732.839 1515.88 687.506C1538.43 640.566 1549.85 590.703 1549.85 539.312V-104.814C1549.85 -156.217 1538.43 -206.068 1515.88 -253.009C1494.11 -298.342 1462.93 -339.066 1423.22 -374.024C1383.51 -408.993 1337.28 -436.442 1285.8 -455.619C1232.5 -475.469 1175.88 -485.541 1117.52 -485.541Z" stroke="#181818" stroke-width="4" stroke-miterlimit="10"/>
<path d="M490 489.922V1646" stroke="#181818" stroke-width="6"/>
<path d="M1366.94 489.922V1646" stroke="#181818" stroke-width="5"/>
<path d="M881.964 489.922V1646" stroke="#181818" stroke-width="4"/>
</g>
<defs>
<clipPath id="clip0_624_1331">
<rect width="1920" height="1080" fill="white"/>
</clipPath>
</defs>
</svg>
